<?xml version="1.0" encoding="utf-8"?>
<!-- Generator: Adobe Illustrator 22.1.0, SVG Export Plug-In . SVG Version: 6.00 Build 0)  -->
<svg version="1.1" id="Layer_1" xmlns="http://www.w3.org/2000/svg" xmlns:xlink="http://www.w3.org/1999/xlink" x="0px" y="0px"
	 width="1920px" height="1080px" viewBox="0 0 1920 1080" enable-background="new 0 0 1920 1080" xml:space="preserve">
<polygon fill="#FFFFFF" points="1036.5,673.5 883.5,673.5 960,541 "/>
<polygon fill="#FFFFFF" points="1036.5,673.5 960,541 1113,541 "/>
<polygon fill="#FFFFFF" points="883.5,673.5 807,541 960,541 "/>
<polygon fill="#FFFFFF" points="960,541 807,541 883.5,408.5 "/>
<polygon fill="#FFFFFF" points="1113,541 960,541 1036.5,408.5 "/>
<polygon fill="#FFFFFF" points="960,541 883.5,408.5 1036.5,408.5 "/>
<polygon fill="#FFFFFF" points="1380.8,474.8 1227.8,474.8 1304.2,342.2 "/>
<polygon fill="#FFFFFF" points="1380.8,474.8 1304.2,342.2 1457.2,342.2 "/>
<polygon fill="#FFFFFF" points="1227.8,474.8 1151.2,342.2 1304.2,342.2 "/>
<polygon fill="#FFFFFF" points="1304.2,342.2 1151.2,342.2 1227.8,209.8 "/>
<polygon fill="#FFFFFF" points="1457.2,342.2 1304.2,342.2 1380.8,209.8 "/>
<polygon fill="#FFFFFF" points="1304.2,342.2 1227.8,209.8 1380.8,209.8 "/>
<polygon fill="#FFFFFF" points="1419,938.5 1189.5,938.5 1304.2,739.8 "/>
<polygon fill="#FFFFFF" points="1419,938.5 1304.2,739.8 1533.8,739.8 "/>
<polygon fill="#FFFFFF" points="1189.5,938.5 1074.8,739.8 1304.2,739.8 "/>
<polygon fill="#FFFFFF" points="1304.2,739.8 1074.8,739.8 1189.5,541 "/>
<polygon fill="#FFFFFF" points="1533.8,739.8 1304.2,739.8 1419,541 "/>
<polygon fill="#FFFFFF" points="1304.2,739.8 1189.5,541 1419,541 "/>
<polygon fill="#FFFFFF" points="1074.8,1137.3 845.2,1137.3 960,938.5 "/>
<polygon fill="#FFFFFF" points="1074.8,1137.3 960,938.5 1189.5,938.5 "/>
<polygon fill="#FFFFFF" points="845.2,1137.3 730.5,938.5 960,938.5 "/>
<polygon fill="#FFFFFF" points="960,938.5 730.5,938.5 845.2,739.8 "/>
<polygon fill="#FFFFFF" points="1189.5,938.5 960,938.5 1074.8,739.8 "/>
<polygon fill="#FFFFFF" points="960,938.5 845.2,739.8 1074.8,739.8 "/>
<polygon fill="#FFFFFF" points="692.2,872.2 539.2,872.2 615.8,739.8 "/>
<polygon fill="#FFFFFF" points="692.2,872.2 615.8,739.8 768.8,739.8 "/>
<polygon fill="#FFFFFF" points="539.2,872.2 462.8,739.8 615.8,739.8 "/>
<polygon fill="#FFFFFF" points="615.8,739.8 462.8,739.8 539.2,607.2 "/>
<polygon fill="#FFFFFF" points="768.8,739.8 615.8,739.8 692.2,607.2 "/>
<polygon fill="#FFFFFF" points="615.8,739.8 539.2,607.2 692.2,607.2 "/>
<polygon fill="#FFFFFF" points="692.2,474.8 539.2,474.8 615.8,342.2 "/>
<polygon fill="#FFFFFF" points="692.2,474.8 615.8,342.2 768.8,342.2 "/>
<polygon fill="#FFFFFF" points="539.2,474.8 462.8,342.2 615.8,342.2 "/>
<polygon fill="#FFFFFF" points="615.8,342.2 462.8,342.2 539.2,209.8 "/>
<polygon fill="#FFFFFF" points="768.8,342.2 615.8,342.2 692.2,209.8 "/>
<polygon fill="#FFFFFF" points="615.8,342.2 539.2,209.8 692.2,209.8 "/>
<polygon fill="#FFFFFF" points="1074.8,342.2 845.2,342.2 960,143.5 "/>
<polygon fill="#FFFFFF" points="1074.8,342.2 960,143.5 1189.5,143.5 "/>
<polygon fill="#FFFFFF" points="845.2,342.2 730.5,143.5 960,143.5 "/>
<polygon fill="#FFFFFF" points="960,143.5 730.5,143.5 845.2,-55.3 "/>
<polygon fill="#FFFFFF" points="1189.5,143.5 960,143.5 1074.8,-55.3 "/>
<polygon fill="#FFFFFF" points="960,143.5 845.2,-55.3 1074.8,-55.3 "/>
<polygon fill="#FFFFFF" points="1419,143.5 1189.5,143.5 1304.2,-55.3 "/>
<polygon fill="#FFFFFF" points="1419,143.5 1304.2,-55.3 1533.8,-55.3 "/>
<polygon fill="#FFFFFF" points="1189.5,143.5 1074.8,-55.3 1304.2,-55.3 "/>
<polygon fill="#FFFFFF" points="1304.2,-55.3 1074.8,-55.3 1189.5,-254 "/>
<polygon fill="#FFFFFF" points="1533.8,-55.3 1304.2,-55.3 1419,-254 "/>
<polygon fill="#FFFFFF" points="1304.2,-55.3 1189.5,-254 1419,-254 "/>
<polygon fill="#FFFFFF" points="1763.2,342.2 1533.8,342.2 1648.5,143.5 "/>
<polygon fill="#FFFFFF" points="1763.2,342.2 1648.5,143.5 1878,143.5 "/>
<polygon fill="#FFFFFF" points="1533.8,342.2 1419,143.5 1648.5,143.5 "/>
<polygon fill="#FFFFFF" points="1648.5,143.5 1419,143.5 1533.8,-55.3 "/>
<polygon fill="#FFFFFF" points="1878,143.5 1648.5,143.5 1763.2,-55.3 "/>
<polygon fill="#FFFFFF" points="1648.5,143.5 1533.8,-55.3 1763.2,-55.3 "/>
<polygon fill="#FFFFFF" points="1763.2,739.8 1533.8,739.8 1648.5,541 "/>
<polygon fill="#FFFFFF" points="1763.2,739.8 1648.5,541 1878,541 "/>
<polygon fill="#FFFFFF" points="1533.8,739.8 1419,541 1648.5,541 "/>
<polygon fill="#FFFFFF" points="1648.5,541 1419,541 1533.8,342.2 "/>
<polygon fill="#FFFFFF" points="1878,541 1648.5,541 1763.2,342.2 "/>
<polygon fill="#FFFFFF" points="1648.5,541 1533.8,342.2 1763.2,342.2 "/>
<polygon fill="#FFFFFF" points="1725,1071 1572,1071 1648.5,938.5 "/>
<polygon fill="#FFFFFF" points="1725,1071 1648.5,938.5 1801.5,938.5 "/>
<polygon fill="#FFFFFF" points="1572,1071 1495.5,938.5 1648.5,938.5 "/>
<polygon fill="#FFFFFF" points="1648.5,938.5 1495.5,938.5 1572,806 "/>
<polygon fill="#FFFFFF" points="1801.5,938.5 1648.5,938.5 1725,806 "/>
<polygon fill="#FFFFFF" points="1648.5,938.5 1572,806 1725,806 "/>
<polygon fill="#FFFFFF" points="1419,1336 1189.5,1336 1304.2,1137.3 "/>
<polygon fill="#FFFFFF" points="1419,1336 1304.2,1137.3 1533.8,1137.3 "/>
<polygon fill="#FFFFFF" points="1189.5,1336 1074.8,1137.3 1304.2,1137.3 "/>
<polygon fill="#FFFFFF" points="1304.2,1137.3 1074.8,1137.3 1189.5,938.5 "/>
<polygon fill="#FFFFFF" points="1533.8,1137.3 1304.2,1137.3 1419,938.5 "/>
<polygon fill="#FFFFFF" points="1304.2,1137.3 1189.5,938.5 1419,938.5 "/>
<polygon fill="#FFFFFF" points="1074.8,1534.8 845.2,1534.8 960,1336 "/>
<polygon fill="#FFFFFF" points="1074.8,1534.8 960,1336 1189.5,1336 "/>
<polygon fill="#FFFFFF" points="845.2,1534.8 730.5,1336 960,1336 "/>
<polygon fill="#FFFFFF" points="960,1336 730.5,1336 845.2,1137.3 "/>
<polygon fill="#FFFFFF" points="1189.5,1336 960,1336 1074.8,1137.3 "/>
<polygon fill="#FFFFFF" points="960,1336 845.2,1137.3 1074.8,1137.3 "/>
<polygon fill="#FFFFFF" points="730.5,1336 501,1336 615.8,1137.3 "/>
<polygon fill="#FFFFFF" points="730.5,1336 615.8,1137.3 845.2,1137.3 "/>
<polygon fill="#FFFFFF" points="501,1336 386.2,1137.3 615.8,1137.3 "/>
<polygon fill="#FFFFFF" points="615.8,1137.3 386.2,1137.3 501,938.5 "/>
<polygon fill="#FFFFFF" points="845.2,1137.3 615.8,1137.3 730.5,938.5 "/>
<polygon fill="#FFFFFF" points="615.8,1137.3 501,938.5 730.5,938.5 "/>
<polygon fill="#FFFFFF" points="386.2,1137.3 156.8,1137.3 271.5,938.5 "/>
<polygon fill="#FFFFFF" points="386.2,1137.3 271.5,938.5 501,938.5 "/>
<polygon fill="#FFFFFF" points="156.8,1137.3 42,938.5 271.5,938.5 "/>
<polygon fill="#FFFFFF" points="271.5,938.5 42,938.5 156.8,739.8 "/>
<polygon fill="#FFFFFF" points="501,938.5 271.5,938.5 386.2,739.8 "/>
<polygon fill="#FFFFFF" points="271.5,938.5 156.8,739.8 386.2,739.8 "/>
<polygon fill="#FFFFFF" points="386.2,739.8 156.8,739.8 271.5,541 "/>
<polygon fill="#FFFFFF" points="386.2,739.8 271.5,541 501,541 "/>
<polygon fill="#FFFFFF" points="156.8,739.8 42,541 271.5,541 "/>
<polygon fill="#FFFFFF" points="271.5,541 42,541 156.8,342.2 "/>
<polygon fill="#FFFFFF" points="501,541 271.5,541 386.2,342.2 "/>
<polygon fill="#FFFFFF" points="271.5,541 156.8,342.2 386.2,342.2 "/>
<polygon fill="#FFFFFF" points="348,276 195,276 271.5,143.5 "/>
<polygon fill="#FFFFFF" points="348,276 271.5,143.5 424.5,143.5 "/>
<polygon fill="#FFFFFF" points="195,276 118.5,143.5 271.5,143.5 "/>
<polygon fill="#FFFFFF" points="271.5,143.5 118.5,143.5 195,11 "/>
<polygon fill="#FFFFFF" points="424.5,143.5 271.5,143.5 348,11 "/>
<polygon fill="#FFFFFF" points="271.5,143.5 195,11 348,11 "/>
<polygon fill="#FFFFFF" points="692.2,77.2 539.2,77.2 615.8,-55.3 "/>
<polygon fill="#FFFFFF" points="692.2,77.2 615.8,-55.3 768.8,-55.3 "/>
<polygon fill="#FFFFFF" points="539.2,77.2 462.8,-55.3 615.8,-55.3 "/>
<polygon fill="#FFFFFF" points="615.8,-55.3 462.8,-55.3 539.2,-187.8 "/>
<polygon fill="#FFFFFF" points="768.8,-55.3 615.8,-55.3 692.2,-187.8 "/>
<polygon fill="#FFFFFF" points="615.8,-55.3 539.2,-187.8 692.2,-187.8 "/>
<polygon fill="#FFFFFF" points="1036.5,-121.5 883.5,-121.5 960,-254 "/>
<polygon fill="#FFFFFF" points="1036.5,-121.5 960,-254 1113,-254 "/>
<polygon fill="#FFFFFF" points="883.5,-121.5 807,-254 960,-254 "/>
<polygon fill="#FFFFFF" points="960,-254 807,-254 883.5,-386.5 "/>
<polygon fill="#FFFFFF" points="1113,-254 960,-254 1036.5,-386.5 "/>
<polygon fill="#FFFFFF" points="960,-254 883.5,-386.5 1036.5,-386.5 "/>
<polygon fill="#FFFFFF" points="1380.8,-320.3 1227.8,-320.3 1304.2,-452.8 "/>
<polygon fill="#FFFFFF" points="1380.8,-320.3 1304.2,-452.8 1457.2,-452.8 "/>
<polygon fill="#FFFFFF" points="1227.8,-320.3 1151.2,-452.8 1304.2,-452.8 "/>
<polygon fill="#FFFFFF" points="1304.2,-452.8 1151.2,-452.8 1227.8,-585.3 "/>
<polygon fill="#FFFFFF" points="1457.2,-452.8 1304.2,-452.8 1380.8,-585.3 "/>
<polygon fill="#FFFFFF" points="1304.2,-452.8 1227.8,-585.3 1380.8,-585.3 "/>
<polygon fill="#FFFFFF" points="1725,-121.5 1572,-121.5 1648.5,-254 "/>
<polygon fill="#FFFFFF" points="1725,-121.5 1648.5,-254 1801.5,-254 "/>
<polygon fill="#FFFFFF" points="1572,-121.5 1495.5,-254 1648.5,-254 "/>
<polygon fill="#FFFFFF" points="1648.5,-254 1495.5,-254 1572,-386.5 "/>
<polygon fill="#FFFFFF" points="1801.5,-254 1648.5,-254 1725,-386.5 "/>
<polygon fill="#FFFFFF" points="1648.5,-254 1572,-386.5 1725,-386.5 "/>
<polygon fill="#FFFFFF" points="2107.5,143.5 1878,143.5 1992.8,-55.3 "/>
<polygon fill="#FFFFFF" points="2107.5,143.5 1992.8,-55.3 2222.2,-55.3 "/>
<polygon fill="#FFFFFF" points="1878,143.5 1763.2,-55.3 1992.8,-55.3 "/>
<polygon fill="#FFFFFF" points="1992.8,-55.3 1763.2,-55.3 1878,-254 "/>
<polygon fill="#FFFFFF" points="2222.2,-55.3 1992.8,-55.3 2107.5,-254 "/>
<polygon fill="#FFFFFF" points="1992.8,-55.3 1878,-254 2107.5,-254 "/>
<polygon fill="#FFFFFF" points="2069.2,474.8 1916.2,474.8 1992.8,342.2 "/>
<polygon fill="#FFFFFF" points="2069.2,474.8 1992.8,342.2 2145.8,342.2 "/>
<polygon fill="#FFFFFF" points="1916.2,474.8 1839.8,342.2 1992.8,342.2 "/>
<polygon fill="#FFFFFF" points="1992.8,342.2 1839.8,342.2 1916.2,209.8 "/>
<polygon fill="#FFFFFF" points="2145.8,342.2 1992.8,342.2 2069.2,209.8 "/>
<polygon fill="#FFFFFF" points="1992.8,342.2 1916.2,209.8 2069.2,209.8 "/>
<polygon fill="#FFFFFF" points="2107.5,938.5 1878,938.5 1992.8,739.8 "/>
<polygon fill="#FFFFFF" points="2107.5,938.5 1992.8,739.8 2222.2,739.8 "/>
<polygon fill="#FFFFFF" points="1878,938.5 1763.2,739.8 1992.8,739.8 "/>
<polygon fill="#FFFFFF" points="1992.8,739.8 1763.2,739.8 1878,541 "/>
<polygon fill="#FFFFFF" points="2222.2,739.8 1992.8,739.8 2107.5,541 "/>
<polygon fill="#FFFFFF" points="1992.8,739.8 1878,541 2107.5,541 "/>
<polygon fill="#FFFFFF" points="2107.5,1336 1878,1336 1992.8,1137.3 "/>
<polygon fill="#FFFFFF" points="2107.5,1336 1992.8,1137.3 2222.2,1137.3 "/>
<polygon fill="#FFFFFF" points="1878,1336 1763.2,1137.3 1992.8,1137.3 "/>
<polygon fill="#FFFFFF" points="1992.8,1137.3 1763.2,1137.3 1878,938.5 "/>
<polygon fill="#FFFFFF" points="2222.2,1137.3 1992.8,1137.3 2107.5,938.5 "/>
<polygon fill="#FFFFFF" points="1992.8,1137.3 1878,938.5 2107.5,938.5 "/>
<polygon fill="#FFFFFF" points="1725,1468.5 1572,1468.5 1648.5,1336 "/>
<polygon fill="#FFFFFF" points="1725,1468.5 1648.5,1336 1801.5,1336 "/>
<polygon fill="#FFFFFF" points="1572,1468.5 1495.5,1336 1648.5,1336 "/>
<polygon fill="#FFFFFF" points="1648.5,1336 1495.5,1336 1572,1203.5 "/>
<polygon fill="#FFFFFF" points="1801.5,1336 1648.5,1336 1725,1203.5 "/>
<polygon fill="#FFFFFF" points="1648.5,1336 1572,1203.5 1725,1203.5 "/>
<polygon fill="#FFFFFF" points="1419,1733.5 1189.5,1733.5 1304.2,1534.8 "/>
<polygon fill="#FFFFFF" points="1419,1733.5 1304.2,1534.8 1533.8,1534.8 "/>
<polygon fill="#FFFFFF" points="1189.5,1733.5 1074.8,1534.8 1304.2,1534.8 "/>
<polygon fill="#FFFFFF" points="1304.2,1534.8 1074.8,1534.8 1189.5,1336 "/>
<polygon fill="#FFFFFF" points="1533.8,1534.8 1304.2,1534.8 1419,1336 "/>
<polygon fill="#FFFFFF" points="1304.2,1534.8 1189.5,1336 1419,1336 "/>
<polygon fill="#FFFFFF" points="1074.8,1932.3 845.2,1932.3 960,1733.5 "/>
<polygon fill="#FFFFFF" points="1074.8,1932.3 960,1733.5 1189.5,1733.5 "/>
<polygon fill="#FFFFFF" points="845.2,1932.3 730.5,1733.5 960,1733.5 "/>
<polygon fill="#FFFFFF" points="960,1733.5 730.5,1733.5 845.2,1534.8 "/>
<polygon fill="#FFFFFF" points="1189.5,1733.5 960,1733.5 1074.8,1534.8 "/>
<polygon fill="#FFFFFF" points="960,1733.5 845.2,1534.8 1074.8,1534.8 "/>
<polygon fill="#FFFFFF" points="730.5,1733.5 501,1733.5 615.8,1534.8 "/>
<polygon fill="#FFFFFF" points="730.5,1733.5 615.8,1534.8 845.2,1534.8 "/>
<polygon fill="#FFFFFF" points="501,1733.5 386.2,1534.8 615.8,1534.8 "/>
<polygon fill="#FFFFFF" points="615.8,1534.8 386.2,1534.8 501,1336 "/>
<polygon fill="#FFFFFF" points="845.2,1534.8 615.8,1534.8 730.5,1336 "/>
<polygon fill="#FFFFFF" points="615.8,1534.8 501,1336 730.5,1336 "/>
<polygon fill="#FFFFFF" points="348,1468.5 195,1468.5 271.5,1336 "/>
<polygon fill="#FFFFFF" points="348,1468.5 271.5,1336 424.5,1336 "/>
<polygon fill="#FFFFFF" points="195,1468.5 118.5,1336 271.5,1336 "/>
<polygon fill="#FFFFFF" points="271.5,1336 118.5,1336 195,1203.5 "/>
<polygon fill="#FFFFFF" points="424.5,1336 271.5,1336 348,1203.5 "/>
<polygon fill="#FFFFFF" points="271.5,1336 195,1203.5 348,1203.5 "/>
<polygon fill="#FFFFFF" points="3.8,1269.8 -149.2,1269.8 -72.8,1137.3 "/>
<polygon fill="#FFFFFF" points="3.8,1269.8 -72.8,1137.3 80.2,1137.3 "/>
<polygon fill="#FFFFFF" points="-149.2,1269.8 -225.8,1137.3 -72.8,1137.3 "/>
<polygon fill="#FFFFFF" points="-72.8,1137.3 -225.8,1137.3 -149.2,1004.8 "/>
<polygon fill="#FFFFFF" points="80.2,1137.3 -72.8,1137.3 3.8,1004.8 "/>
<polygon fill="#FFFFFF" points="-72.8,1137.3 -149.2,1004.8 3.8,1004.8 "/>
<polygon fill="#FFFFFF" points="3.8,872.2 -149.2,872.2 -72.8,739.8 "/>
<polygon fill="#FFFFFF" points="3.8,872.2 -72.8,739.8 80.2,739.8 "/>
<polygon fill="#FFFFFF" points="-149.2,872.2 -225.8,739.8 -72.8,739.8 "/>
<polygon fill="#FFFFFF" points="-72.8,739.8 -225.8,739.8 -149.2,607.2 "/>
<polygon fill="#FFFFFF" points="80.2,739.8 -72.8,739.8 3.8,607.2 "/>
<polygon fill="#FFFFFF" points="-72.8,739.8 -149.2,607.2 3.8,607.2 "/>
<polygon fill="#FFFFFF" points="42,541 -187.5,541 -72.8,342.2 "/>
<polygon fill="#FFFFFF" points="42,541 -72.8,342.2 156.8,342.2 "/>
<polygon fill="#FFFFFF" points="-187.5,541 -302.2,342.2 -72.8,342.2 "/>
<polygon fill="#FFFFFF" points="-72.8,342.2 -302.2,342.2 -187.5,143.5 "/>
<polygon fill="#FFFFFF" points="156.8,342.2 -72.8,342.2 42,143.5 "/>
<polygon fill="#FFFFFF" points="-72.8,342.2 -187.5,143.5 42,143.5 "/>
<polygon fill="#FFFFFF" points="3.8,77.2 -149.2,77.2 -72.8,-55.3 "/>
<polygon fill="#FFFFFF" points="3.8,77.2 -72.8,-55.3 80.2,-55.3 "/>
<polygon fill="#FFFFFF" points="-149.2,77.2 -225.8,-55.3 -72.8,-55.3 "/>
<polygon fill="#FFFFFF" points="-72.8,-55.3 -225.8,-55.3 -149.2,-187.8 "/>
<polygon fill="#FFFFFF" points="80.2,-55.3 -72.8,-55.3 3.8,-187.8 "/>
<polygon fill="#FFFFFF" points="-72.8,-55.3 -149.2,-187.8 3.8,-187.8 "/>
<polygon fill="#FFFFFF" points="386.2,-55.3 156.8,-55.3 271.5,-254 "/>
<polygon fill="#FFFFFF" points="386.2,-55.3 271.5,-254 501,-254 "/>
<polygon fill="#FFFFFF" points="156.8,-55.3 42,-254 271.5,-254 "/>
<polygon fill="#FFFFFF" points="271.5,-254 42,-254 156.8,-452.8 "/>
<polygon fill="#FFFFFF" points="501,-254 271.5,-254 386.2,-452.8 "/>
<polygon fill="#FFFFFF" points="271.5,-254 156.8,-452.8 386.2,-452.8 "/>
<polygon fill="#FFFFFF" points="692.2,-320.3 539.2,-320.3 615.8,-452.8 "/>
<polygon fill="#FFFFFF" points="692.2,-320.3 615.8,-452.8 768.8,-452.8 "/>
<polygon fill="#FFFFFF" points="539.2,-320.3 462.8,-452.8 615.8,-452.8 "/>
<polygon fill="#FFFFFF" points="615.8,-452.8 462.8,-452.8 539.2,-585.3 "/>
<polygon fill="#FFFFFF" points="768.8,-452.8 615.8,-452.8 692.2,-585.3 "/>
<polygon fill="#FFFFFF" points="615.8,-452.8 539.2,-585.3 692.2,-585.3 "/>
<polygon fill="#FFFFFF" points="1074.8,-452.8 845.2,-452.8 960,-651.5 "/>
<polygon fill="#FFFFFF" points="1074.8,-452.8 960,-651.5 1189.5,-651.5 "/>
<polygon fill="#FFFFFF" points="845.2,-452.8 730.5,-651.5 960,-651.5 "/>
<polygon fill="#FFFFFF" points="960,-651.5 730.5,-651.5 845.2,-850.3 "/>
<polygon fill="#FFFFFF" points="1189.5,-651.5 960,-651.5 1074.8,-850.3 "/>
<polygon fill="#FFFFFF" points="960,-651.5 845.2,-850.3 1074.8,-850.3 "/>
<polygon fill="#FFFFFF" points="1419,-651.5 1189.5,-651.5 1304.2,-850.3 "/>
<polygon fill="#FFFFFF" points="1419,-651.5 1304.2,-850.3 1533.8,-850.3 "/>
<polygon fill="#FFFFFF" points="1189.5,-651.5 1074.8,-850.3 1304.2,-850.3 "/>
<polygon fill="#FFFFFF" points="1304.2,-850.3 1074.8,-850.3 1189.5,-1049 "/>
<polygon fill="#FFFFFF" points="1533.8,-850.3 1304.2,-850.3 1419,-1049 "/>
<polygon fill="#FFFFFF" points="1304.2,-850.3 1189.5,-1049 1419,-1049 "/>
<polygon fill="#FFFFFF" points="1763.2,-452.8 1533.8,-452.8 1648.5,-651.5 "/>
<polygon fill="#FFFFFF" points="1763.2,-452.8 1648.5,-651.5 1878,-651.5 "/>
<polygon fill="#FFFFFF" points="1533.8,-452.8 1419,-651.5 1648.5,-651.5 "/>
<polygon fill="#FFFFFF" points="1648.5,-651.5 1419,-651.5 1533.8,-850.3 "/>
<polygon fill="#FFFFFF" points="1878,-651.5 1648.5,-651.5 1763.2,-850.3 "/>
<polygon fill="#FFFFFF" points="1648.5,-651.5 1533.8,-850.3 1763.2,-850.3 "/>
<polygon fill="#FFFFFF" points="2069.2,-320.3 1916.2,-320.3 1992.8,-452.8 "/>
<polygon fill="#FFFFFF" points="2069.2,-320.3 1992.8,-452.8 2145.8,-452.8 "/>
<polygon fill="#FFFFFF" points="1916.2,-320.3 1839.8,-452.8 1992.8,-452.8 "/>
<polygon fill="#FFFFFF" points="1992.8,-452.8 1839.8,-452.8 1916.2,-585.3 "/>
<polygon fill="#FFFFFF" points="2145.8,-452.8 1992.8,-452.8 2069.2,-585.3 "/>
<polygon fill="#FFFFFF" points="1992.8,-452.8 1916.2,-585.3 2069.2,-585.3 "/>
<polygon fill="#FFFFFF" points="2451.8,-55.3 2222.2,-55.3 2337,-254 "/>
<polygon fill="#FFFFFF" points="2451.8,-55.3 2337,-254 2566.5,-254 "/>
<polygon fill="#FFFFFF" points="2222.2,-55.3 2107.5,-254 2337,-254 "/>
<polygon fill="#FFFFFF" points="2337,-254 2107.5,-254 2222.2,-452.8 "/>
<polygon fill="#FFFFFF" points="2566.5,-254 2337,-254 2451.8,-452.8 "/>
<polygon fill="#FFFFFF" points="2337,-254 2222.2,-452.8 2451.8,-452.8 "/>
<polygon fill="#FFFFFF" points="2413.5,276 2260.5,276 2337,143.5 "/>
<polygon fill="#FFFFFF" points="2413.5,276 2337,143.5 2490,143.5 "/>
<polygon fill="#FFFFFF" points="2260.5,276 2184,143.5 2337,143.5 "/>
<polygon fill="#FFFFFF" points="2337,143.5 2184,143.5 2260.5,11 "/>
<polygon fill="#FFFFFF" points="2490,143.5 2337,143.5 2413.5,11 "/>
<polygon fill="#FFFFFF" points="2337,143.5 2260.5,11 2413.5,11 "/>
<polygon fill="#FFFFFF" points="2451.8,739.8 2222.2,739.8 2337,541 "/>
<polygon fill="#FFFFFF" points="2451.8,739.8 2337,541 2566.5,541 "/>
<polygon fill="#FFFFFF" points="2222.2,739.8 2107.5,541 2337,541 "/>
<polygon fill="#FFFFFF" points="2337,541 2107.5,541 2222.2,342.2 "/>
<polygon fill="#FFFFFF" points="2566.5,541 2337,541 2451.8,342.2 "/>
<polygon fill="#FFFFFF" points="2337,541 2222.2,342.2 2451.8,342.2 "/>
<polygon fill="#FFFFFF" points="2413.5,1071 2260.5,1071 2337,938.5 "/>
<polygon fill="#FFFFFF" points="2413.5,1071 2337,938.5 2490,938.5 "/>
<polygon fill="#FFFFFF" points="2260.5,1071 2184,938.5 2337,938.5 "/>
<polygon fill="#FFFFFF" points="2337,938.5 2184,938.5 2260.5,806 "/>
<polygon fill="#FFFFFF" points="2490,938.5 2337,938.5 2413.5,806 "/>
<polygon fill="#FFFFFF" points="2337,938.5 2260.5,806 2413.5,806 "/>
<polygon fill="#FFFFFF" points="2451.8,1534.8 2222.2,1534.8 2337,1336 "/>
<polygon fill="#FFFFFF" points="2451.8,1534.8 2337,1336 2566.5,1336 "/>
<polygon fill="#FFFFFF" points="2222.2,1534.8 2107.5,1336 2337,1336 "/>
<polygon fill="#FFFFFF" points="2337,1336 2107.5,1336 2222.2,1137.3 "/>
<polygon fill="#FFFFFF" points="2566.5,1336 2337,1336 2451.8,1137.3 "/>
<polygon fill="#FFFFFF" points="2337,1336 2222.2,1137.3 2451.8,1137.3 "/>
<polygon fill="#FFFFFF" points="2069.2,1667.3 1916.2,1667.3 1992.8,1534.8 "/>
<polygon fill="#FFFFFF" points="2069.2,1667.3 1992.8,1534.8 2145.8,1534.8 "/>
<polygon fill="#FFFFFF" points="1916.2,1667.3 1839.8,1534.8 1992.8,1534.8 "/>
<polygon fill="#FFFFFF" points="1992.8,1534.8 1839.8,1534.8 1916.2,1402.3 "/>
<polygon fill="#FFFFFF" points="2145.8,1534.8 1992.8,1534.8 2069.2,1402.3 "/>
<polygon fill="#FFFFFF" points="1992.8,1534.8 1916.2,1402.3 2069.2,1402.3 "/>
<polygon fill="#FFFFFF" points="1725,1866 1572,1866 1648.5,1733.5 "/>
<polygon fill="#FFFFFF" points="1725,1866 1648.5,1733.5 1801.5,1733.5 "/>
<polygon fill="#FFFFFF" points="1572,1866 1495.5,1733.5 1648.5,1733.5 "/>
<polygon fill="#FFFFFF" points="1648.5,1733.5 1495.5,1733.5 1572,1601 "/>
<polygon fill="#FFFFFF" points="1801.5,1733.5 1648.5,1733.5 1725,1601 "/>
<polygon fill="#FFFFFF" points="1648.5,1733.5 1572,1601 1725,1601 "/>
<polygon fill="#FFFFFF" points="1380.8,2064.8 1227.8,2064.8 1304.2,1932.3 "/>
<polygon fill="#FFFFFF" points="1380.8,2064.8 1304.2,1932.3 1457.2,1932.3 "/>
<polygon fill="#FFFFFF" points="1227.8,2064.8 1151.2,1932.3 1304.2,1932.3 "/>
<polygon fill="#FFFFFF" points="1304.2,1932.3 1151.2,1932.3 1227.8,1799.8 "/>
<polygon fill="#FFFFFF" points="1457.2,1932.3 1304.2,1932.3 1380.8,1799.8 "/>
<polygon fill="#FFFFFF" points="1304.2,1932.3 1227.8,1799.8 1380.8,1799.8 "/>
<polygon fill="#FFFFFF" points="1036.5,2263.5 883.5,2263.5 960,2131 "/>
<polygon fill="#FFFFFF" points="1036.5,2263.5 960,2131 1113,2131 "/>
<polygon fill="#FFFFFF" points="883.5,2263.5 807,2131 960,2131 "/>
<polygon fill="#FFFFFF" points="960,2131 807,2131 883.5,1998.5 "/>
<polygon fill="#FFFFFF" points="1113,2131 960,2131 1036.5,1998.5 "/>
<polygon fill="#FFFFFF" points="960,2131 883.5,1998.5 1036.5,1998.5 "/>
<polygon fill="#FFFFFF" points="730.5,2131 501,2131 615.8,1932.3 "/>
<polygon fill="#FFFFFF" points="730.5,2131 615.8,1932.3 845.2,1932.3 "/>
<polygon fill="#FFFFFF" points="501,2131 386.2,1932.3 615.8,1932.3 "/>
<polygon fill="#FFFFFF" points="615.8,1932.3 386.2,1932.3 501,1733.5 "/>
<polygon fill="#FFFFFF" points="845.2,1932.3 615.8,1932.3 730.5,1733.5 "/>
<polygon fill="#FFFFFF" points="615.8,1932.3 501,1733.5 730.5,1733.5 "/>
<polygon fill="#FFFFFF" points="386.2,1932.3 156.8,1932.3 271.5,1733.5 "/>
<polygon fill="#FFFFFF" points="386.2,1932.3 271.5,1733.5 501,1733.5 "/>
<polygon fill="#FFFFFF" points="156.8,1932.3 42,1733.5 271.5,1733.5 "/>
<polygon fill="#FFFFFF" points="271.5,1733.5 42,1733.5 156.8,1534.8 "/>
<polygon fill="#FFFFFF" points="501,1733.5 271.5,1733.5 386.2,1534.8 "/>
<polygon fill="#FFFFFF" points="271.5,1733.5 156.8,1534.8 386.2,1534.8 "/>
<polygon fill="#FFFFFF" points="3.8,1667.3 -149.2,1667.3 -72.8,1534.8 "/>
<polygon fill="#FFFFFF" points="3.8,1667.3 -72.8,1534.8 80.2,1534.8 "/>
<polygon fill="#FFFFFF" points="-149.2,1667.3 -225.8,1534.8 -72.8,1534.8 "/>
<polygon fill="#FFFFFF" points="-72.8,1534.8 -225.8,1534.8 -149.2,1402.3 "/>
<polygon fill="#FFFFFF" points="80.2,1534.8 -72.8,1534.8 3.8,1402.3 "/>
<polygon fill="#FFFFFF" points="-72.8,1534.8 -149.2,1402.3 3.8,1402.3 "/>
<polygon fill="#FFFFFF" points="-340.5,1468.5 -493.5,1468.5 -417,1336 "/>
<polygon fill="#FFFFFF" points="-340.5,1468.5 -417,1336 -264,1336 "/>
<polygon fill="#FFFFFF" points="-493.5,1468.5 -570,1336 -417,1336 "/>
<polygon fill="#FFFFFF" points="-417,1336 -570,1336 -493.5,1203.5 "/>
<polygon fill="#FFFFFF" points="-264,1336 -417,1336 -340.5,1203.5 "/>
<polygon fill="#FFFFFF" points="-417,1336 -493.5,1203.5 -340.5,1203.5 "/>
<polygon fill="#FFFFFF" points="-340.5,1071 -493.5,1071 -417,938.5 "/>
<polygon fill="#FFFFFF" points="-340.5,1071 -417,938.5 -264,938.5 "/>
<polygon fill="#FFFFFF" points="-493.5,1071 -570,938.5 -417,938.5 "/>
<polygon fill="#FFFFFF" points="-417,938.5 -570,938.5 -493.5,806 "/>
<polygon fill="#FFFFFF" points="-264,938.5 -417,938.5 -340.5,806 "/>
<polygon fill="#FFFFFF" points="-417,938.5 -493.5,806 -340.5,806 "/>
<polygon fill="#FFFFFF" points="-302.2,739.8 -531.8,739.8 -417,541 "/>
<polygon fill="#FFFFFF" points="-302.2,739.8 -417,541 -187.5,541 "/>
<polygon fill="#FFFFFF" points="-531.8,739.8 -646.5,541 -417,541 "/>
<polygon fill="#FFFFFF" points="-417,541 -646.5,541 -531.8,342.2 "/>
<polygon fill="#FFFFFF" points="-187.5,541 -417,541 -302.2,342.2 "/>
<polygon fill="#FFFFFF" points="-417,541 -531.8,342.2 -302.2,342.2 "/>
<polygon fill="#FFFFFF" points="-302.2,342.2 -531.8,342.2 -417,143.5 "/>
<polygon fill="#FFFFFF" points="-302.2,342.2 -417,143.5 -187.5,143.5 "/>
<polygon fill="#FFFFFF" points="-531.8,342.2 -646.5,143.5 -417,143.5 "/>
<polygon fill="#FFFFFF" points="-417,143.5 -646.5,143.5 -531.8,-55.3 "/>
<polygon fill="#FFFFFF" points="-187.5,143.5 -417,143.5 -302.2,-55.3 "/>
<polygon fill="#FFFFFF" points="-417,143.5 -531.8,-55.3 -302.2,-55.3 "/>
<polygon fill="#FFFFFF" points="-340.5,-121.5 -493.5,-121.5 -417,-254 "/>
<polygon fill="#FFFFFF" points="-340.5,-121.5 -417,-254 -264,-254 "/>
<polygon fill="#FFFFFF" points="-493.5,-121.5 -570,-254 -417,-254 "/>
<polygon fill="#FFFFFF" points="-417,-254 -570,-254 -493.5,-386.5 "/>
<polygon fill="#FFFFFF" points="-264,-254 -417,-254 -340.5,-386.5 "/>
<polygon fill="#FFFFFF" points="-417,-254 -493.5,-386.5 -340.5,-386.5 "/>
<polygon fill="#FFFFFF" points="3.8,-320.3 -149.2,-320.3 -72.8,-452.8 "/>
<polygon fill="#FFFFFF" points="3.8,-320.3 -72.8,-452.8 80.2,-452.8 "/>
<polygon fill="#FFFFFF" points="-149.2,-320.3 -225.8,-452.8 -72.8,-452.8 "/>
<polygon fill="#FFFFFF" points="-72.8,-452.8 -225.8,-452.8 -149.2,-585.3 "/>
<polygon fill="#FFFFFF" points="80.2,-452.8 -72.8,-452.8 3.8,-585.3 "/>
<polygon fill="#FFFFFF" points="-72.8,-452.8 -149.2,-585.3 3.8,-585.3 "/>
<polygon fill="#FFFFFF" points="348,-519 195,-519 271.5,-651.5 "/>
<polygon fill="#FFFFFF" points="348,-519 271.5,-651.5 424.5,-651.5 "/>
<polygon fill="#FFFFFF" points="195,-519 118.5,-651.5 271.5,-651.5 "/>
<polygon fill="#FFFFFF" points="271.5,-651.5 118.5,-651.5 195,-784 "/>
<polygon fill="#FFFFFF" points="424.5,-651.5 271.5,-651.5 348,-784 "/>
<polygon fill="#FFFFFF" points="271.5,-651.5 195,-784 348,-784 "/>
<polygon fill="#FFFFFF" points="730.5,-651.5 501,-651.5 615.8,-850.3 "/>
<polygon fill="#FFFFFF" points="730.5,-651.5 615.8,-850.3 845.2,-850.3 "/>
<polygon fill="#FFFFFF" points="501,-651.5 386.2,-850.3 615.8,-850.3 "/>
<polygon fill="#FFFFFF" points="615.8,-850.3 386.2,-850.3 501,-1049 "/>
<polygon fill="#FFFFFF" points="845.2,-850.3 615.8,-850.3 730.5,-1049 "/>
<polygon fill="#FFFFFF" points="615.8,-850.3 501,-1049 730.5,-1049 "/>
<polygon fill="#FFFFFF" points="1036.5,-916.5 883.5,-916.5 960,-1049 "/>
<polygon fill="#FFFFFF" points="1036.5,-916.5 960,-1049 1113,-1049 "/>
<polygon fill="#FFFFFF" points="883.5,-916.5 807,-1049 960,-1049 "/>
<polygon fill="#FFFFFF" points="960,-1049 807,-1049 883.5,-1181.5 "/>
<polygon fill="#FFFFFF" points="1113,-1049 960,-1049 1036.5,-1181.5 "/>
<polygon fill="#FFFFFF" points="960,-1049 883.5,-1181.5 1036.5,-1181.5 "/>
</svg>
