<?xml version="1.0" encoding="utf-8"?>
<!-- Generator: Adobe Illustrator 22.1.0, SVG Export Plug-In . SVG Version: 6.00 Build 0)  -->
<svg version="1.1" id="Layer_1" xmlns="http://www.w3.org/2000/svg" xmlns:xlink="http://www.w3.org/1999/xlink" x="0px" y="0px"
	 width="1920px" height="1080px" viewBox="0 0 1920 1080" enable-background="new 0 0 1920 1080" xml:space="preserve">
<polygon fill="#FFFFFF" points="1036.5,672.5 883.5,672.5 960,540 "/>
<polygon fill="#FFFFFF" points="1036.5,672.5 960,540 1113,540 "/>
<polygon fill="#FFFFFF" points="883.5,672.5 807,540 960,540 "/>
<polygon fill="#FFFFFF" points="960,540 807,540 883.5,407.5 "/>
<polygon fill="#FFFFFF" points="1113,540 960,540 1036.5,407.5 "/>
<polygon fill="#FFFFFF" points="960,540 883.5,407.5 1036.5,407.5 "/>
<polygon fill="#FFFFFF" points="1419,805 960,805 1189.5,407.5 "/>
<polygon fill="#FFFFFF" points="1419,805 1189.5,407.5 1648.5,407.5 "/>
<polygon fill="#FFFFFF" points="960,805 730.5,407.5 1189.5,407.5 "/>
<polygon fill="#FFFFFF" points="1189.5,407.5 730.5,407.5 960,10 "/>
<polygon fill="#FFFFFF" points="1648.5,407.5 1189.5,407.5 1419,10 "/>
<polygon fill="#FFFFFF" points="1189.5,407.5 960,10 1419,10 "/>
<polygon fill="#FFFFFF" points="1266,805 1113,805 1189.5,672.5 "/>
<polygon fill="#FFFFFF" points="1266,805 1189.5,672.5 1342.5,672.5 "/>
<polygon fill="#FFFFFF" points="1113,805 1036.5,672.5 1189.5,672.5 "/>
<polygon fill="#FFFFFF" points="1189.5,672.5 1036.5,672.5 1113,540 "/>
<polygon fill="#FFFFFF" points="1342.5,672.5 1189.5,672.5 1266,540 "/>
<polygon fill="#FFFFFF" points="1189.5,672.5 1113,540 1266,540 "/>
<polygon fill="#FFFFFF" points="1036.5,937.5 883.5,937.5 960,805 "/>
<polygon fill="#FFFFFF" points="1036.5,937.5 960,805 1113,805 "/>
<polygon fill="#FFFFFF" points="883.5,937.5 807,805 960,805 "/>
<polygon fill="#FFFFFF" points="960,805 807,805 883.5,672.5 "/>
<polygon fill="#FFFFFF" points="1113,805 960,805 1036.5,672.5 "/>
<polygon fill="#FFFFFF" points="960,805 883.5,672.5 1036.5,672.5 "/>
<polygon fill="#FFFFFF" points="960,1070 501,1070 730.5,672.5 "/>
<polygon fill="#FFFFFF" points="960,1070 730.5,672.5 1189.5,672.5 "/>
<polygon fill="#FFFFFF" points="501,1070 271.5,672.5 730.5,672.5 "/>
<polygon fill="#FFFFFF" points="730.5,672.5 271.5,672.5 501,275 "/>
<polygon fill="#FFFFFF" points="1189.5,672.5 730.5,672.5 960,275 "/>
<polygon fill="#FFFFFF" points="730.5,672.5 501,275 960,275 "/>
<polygon fill="#FFFFFF" points="883.5,672.5 577.5,672.5 730.5,407.5 "/>
<polygon fill="#FFFFFF" points="883.5,672.5 730.5,407.5 1036.5,407.5 "/>
<polygon fill="#FFFFFF" points="577.5,672.5 424.5,407.5 730.5,407.5 "/>
<polygon fill="#FFFFFF" points="730.5,407.5 424.5,407.5 577.5,142.5 "/>
<polygon fill="#FFFFFF" points="1036.5,407.5 730.5,407.5 883.5,142.5 "/>
<polygon fill="#FFFFFF" points="730.5,407.5 577.5,142.5 883.5,142.5 "/>
<polygon fill="#FFFFFF" points="1036.5,407.5 883.5,407.5 960,275 "/>
<polygon fill="#FFFFFF" points="1036.5,407.5 960,275 1113,275 "/>
<polygon fill="#FFFFFF" points="883.5,407.5 807,275 960,275 "/>
<polygon fill="#FFFFFF" points="960,275 807,275 883.5,142.5 "/>
<polygon fill="#FFFFFF" points="1113,275 960,275 1036.5,142.5 "/>
<polygon fill="#FFFFFF" points="960,275 883.5,142.5 1036.5,142.5 "/>
<polygon fill="#FFFFFF" points="1266,275 1113,275 1189.5,142.5 "/>
<polygon fill="#FFFFFF" points="1266,275 1189.5,142.5 1342.5,142.5 "/>
<polygon fill="#FFFFFF" points="1113,275 1036.5,142.5 1189.5,142.5 "/>
<polygon fill="#FFFFFF" points="1189.5,142.5 1036.5,142.5 1113,10 "/>
<polygon fill="#FFFFFF" points="1342.5,142.5 1189.5,142.5 1266,10 "/>
<polygon fill="#FFFFFF" points="1189.5,142.5 1113,10 1266,10 "/>
<polygon fill="#FFFFFF" points="1495.5,407.5 1342.5,407.5 1419,275 "/>
<polygon fill="#FFFFFF" points="1495.5,407.5 1419,275 1572,275 "/>
<polygon fill="#FFFFFF" points="1342.5,407.5 1266,275 1419,275 "/>
<polygon fill="#FFFFFF" points="1419,275 1266,275 1342.5,142.5 "/>
<polygon fill="#FFFFFF" points="1572,275 1419,275 1495.5,142.5 "/>
<polygon fill="#FFFFFF" points="1419,275 1342.5,142.5 1495.5,142.5 "/>
<polygon fill="#FFFFFF" points="1648.5,937.5 1189.5,937.5 1419,540 "/>
<polygon fill="#FFFFFF" points="1648.5,937.5 1419,540 1878,540 "/>
<polygon fill="#FFFFFF" points="1189.5,937.5 960,540 1419,540 "/>
<polygon fill="#FFFFFF" points="1419,540 960,540 1189.5,142.5 "/>
<polygon fill="#FFFFFF" points="1878,540 1419,540 1648.5,142.5 "/>
<polygon fill="#FFFFFF" points="1419,540 1189.5,142.5 1648.5,142.5 "/>
<polygon fill="#FFFFFF" points="1495.5,937.5 1342.5,937.5 1419,805 "/>
<polygon fill="#FFFFFF" points="1495.5,937.5 1419,805 1572,805 "/>
<polygon fill="#FFFFFF" points="1342.5,937.5 1266,805 1419,805 "/>
<polygon fill="#FFFFFF" points="1419,805 1266,805 1342.5,672.5 "/>
<polygon fill="#FFFFFF" points="1572,805 1419,805 1495.5,672.5 "/>
<polygon fill="#FFFFFF" points="1419,805 1342.5,672.5 1495.5,672.5 "/>
<polygon fill="#FFFFFF" points="1419,1335 960,1335 1189.5,937.5 "/>
<polygon fill="#FFFFFF" points="1419,1335 1189.5,937.5 1648.5,937.5 "/>
<polygon fill="#FFFFFF" points="960,1335 730.5,937.5 1189.5,937.5 "/>
<polygon fill="#FFFFFF" points="1189.5,937.5 730.5,937.5 960,540 "/>
<polygon fill="#FFFFFF" points="1648.5,937.5 1189.5,937.5 1419,540 "/>
<polygon fill="#FFFFFF" points="1189.5,937.5 960,540 1419,540 "/>
<polygon fill="#FFFFFF" points="1036.5,1202.5 883.5,1202.5 960,1070 "/>
<polygon fill="#FFFFFF" points="1036.5,1202.5 960,1070 1113,1070 "/>
<polygon fill="#FFFFFF" points="883.5,1202.5 807,1070 960,1070 "/>
<polygon fill="#FFFFFF" points="960,1070 807,1070 883.5,937.5 "/>
<polygon fill="#FFFFFF" points="1113,1070 960,1070 1036.5,937.5 "/>
<polygon fill="#FFFFFF" points="960,1070 883.5,937.5 1036.5,937.5 "/>
<polygon fill="#FFFFFF" points="807,1070 654,1070 730.5,937.5 "/>
<polygon fill="#FFFFFF" points="807,1070 730.5,937.5 883.5,937.5 "/>
<polygon fill="#FFFFFF" points="654,1070 577.5,937.5 730.5,937.5 "/>
<polygon fill="#FFFFFF" points="730.5,937.5 577.5,937.5 654,805 "/>
<polygon fill="#FFFFFF" points="883.5,937.5 730.5,937.5 807,805 "/>
<polygon fill="#FFFFFF" points="730.5,937.5 654,805 807,805 "/>
<polygon fill="#FFFFFF" points="577.5,937.5 424.5,937.5 501,805 "/>
<polygon fill="#FFFFFF" points="577.5,937.5 501,805 654,805 "/>
<polygon fill="#FFFFFF" points="424.5,937.5 348,805 501,805 "/>
<polygon fill="#FFFFFF" points="501,805 348,805 424.5,672.5 "/>
<polygon fill="#FFFFFF" points="654,805 501,805 577.5,672.5 "/>
<polygon fill="#FFFFFF" points="501,805 424.5,672.5 577.5,672.5 "/>
<polygon fill="#FFFFFF" points="577.5,672.5 424.5,672.5 501,540 "/>
<polygon fill="#FFFFFF" points="577.5,672.5 501,540 654,540 "/>
<polygon fill="#FFFFFF" points="424.5,672.5 348,540 501,540 "/>
<polygon fill="#FFFFFF" points="501,540 348,540 424.5,407.5 "/>
<polygon fill="#FFFFFF" points="654,540 501,540 577.5,407.5 "/>
<polygon fill="#FFFFFF" points="501,540 424.5,407.5 577.5,407.5 "/>
<polygon fill="#FFFFFF" points="654,540 348,540 501,275 "/>
<polygon fill="#FFFFFF" points="654,540 501,275 807,275 "/>
<polygon fill="#FFFFFF" points="348,540 195,275 501,275 "/>
<polygon fill="#FFFFFF" points="501,275 195,275 348,10 "/>
<polygon fill="#FFFFFF" points="807,275 501,275 654,10 "/>
<polygon fill="#FFFFFF" points="501,275 348,10 654,10 "/>
<polygon fill="#FFFFFF" points="807,275 654,275 730.5,142.5 "/>
<polygon fill="#FFFFFF" points="807,275 730.5,142.5 883.5,142.5 "/>
<polygon fill="#FFFFFF" points="654,275 577.5,142.5 730.5,142.5 "/>
<polygon fill="#FFFFFF" points="730.5,142.5 577.5,142.5 654,10 "/>
<polygon fill="#FFFFFF" points="883.5,142.5 730.5,142.5 807,10 "/>
<polygon fill="#FFFFFF" points="730.5,142.5 654,10 807,10 "/>
<polygon fill="#FFFFFF" points="1036.5,142.5 883.5,142.5 960,10 "/>
<polygon fill="#FFFFFF" points="1036.5,142.5 960,10 1113,10 "/>
<polygon fill="#FFFFFF" points="883.5,142.5 807,10 960,10 "/>
<polygon fill="#FFFFFF" points="960,10 807,10 883.5,-122.5 "/>
<polygon fill="#FFFFFF" points="1113,10 960,10 1036.5,-122.5 "/>
<polygon fill="#FFFFFF" points="960,10 883.5,-122.5 1036.5,-122.5 "/>
<polygon fill="#FFFFFF" points="1342.5,142.5 1036.5,142.5 1189.5,-122.5 "/>
<polygon fill="#FFFFFF" points="1342.5,142.5 1189.5,-122.5 1495.5,-122.5 "/>
<polygon fill="#FFFFFF" points="1036.5,142.5 883.5,-122.5 1189.5,-122.5 "/>
<polygon fill="#FFFFFF" points="1189.5,-122.5 883.5,-122.5 1036.5,-387.5 "/>
<polygon fill="#FFFFFF" points="1495.5,-122.5 1189.5,-122.5 1342.5,-387.5 "/>
<polygon fill="#FFFFFF" points="1189.5,-122.5 1036.5,-387.5 1342.5,-387.5 "/>
<polygon fill="#FFFFFF" points="1648.5,407.5 1189.5,407.5 1419,10 "/>
<polygon fill="#FFFFFF" points="1648.5,407.5 1419,10 1878,10 "/>
<polygon fill="#FFFFFF" points="1189.5,407.5 960,10 1419,10 "/>
<polygon fill="#FFFFFF" points="1419,10 960,10 1189.5,-387.5 "/>
<polygon fill="#FFFFFF" points="1878,10 1419,10 1648.5,-387.5 "/>
<polygon fill="#FFFFFF" points="1419,10 1189.5,-387.5 1648.5,-387.5 "/>
<polygon fill="#FFFFFF" points="1725,275 1572,275 1648.5,142.5 "/>
<polygon fill="#FFFFFF" points="1725,275 1648.5,142.5 1801.5,142.5 "/>
<polygon fill="#FFFFFF" points="1572,275 1495.5,142.5 1648.5,142.5 "/>
<polygon fill="#FFFFFF" points="1648.5,142.5 1495.5,142.5 1572,10 "/>
<polygon fill="#FFFFFF" points="1801.5,142.5 1648.5,142.5 1725,10 "/>
<polygon fill="#FFFFFF" points="1648.5,142.5 1572,10 1725,10 "/>
<polygon fill="#FFFFFF" points="1801.5,672.5 1495.5,672.5 1648.5,407.5 "/>
<polygon fill="#FFFFFF" points="1801.5,672.5 1648.5,407.5 1954.5,407.5 "/>
<polygon fill="#FFFFFF" points="1495.5,672.5 1342.5,407.5 1648.5,407.5 "/>
<polygon fill="#FFFFFF" points="1648.5,407.5 1342.5,407.5 1495.5,142.5 "/>
<polygon fill="#FFFFFF" points="1954.5,407.5 1648.5,407.5 1801.5,142.5 "/>
<polygon fill="#FFFFFF" points="1648.5,407.5 1495.5,142.5 1801.5,142.5 "/>
<polygon fill="#FFFFFF" points="1801.5,937.5 1495.5,937.5 1648.5,672.5 "/>
<polygon fill="#FFFFFF" points="1801.5,937.5 1648.5,672.5 1954.5,672.5 "/>
<polygon fill="#FFFFFF" points="1495.5,937.5 1342.5,672.5 1648.5,672.5 "/>
<polygon fill="#FFFFFF" points="1648.5,672.5 1342.5,672.5 1495.5,407.5 "/>
<polygon fill="#FFFFFF" points="1954.5,672.5 1648.5,672.5 1801.5,407.5 "/>
<polygon fill="#FFFFFF" points="1648.5,672.5 1495.5,407.5 1801.5,407.5 "/>
<polygon fill="#FFFFFF" points="1725,1070 1572,1070 1648.5,937.5 "/>
<polygon fill="#FFFFFF" points="1725,1070 1648.5,937.5 1801.5,937.5 "/>
<polygon fill="#FFFFFF" points="1572,1070 1495.5,937.5 1648.5,937.5 "/>
<polygon fill="#FFFFFF" points="1648.5,937.5 1495.5,937.5 1572,805 "/>
<polygon fill="#FFFFFF" points="1801.5,937.5 1648.5,937.5 1725,805 "/>
<polygon fill="#FFFFFF" points="1648.5,937.5 1572,805 1725,805 "/>
<polygon fill="#FFFFFF" points="1572,1335 1266,1335 1419,1070 "/>
<polygon fill="#FFFFFF" points="1572,1335 1419,1070 1725,1070 "/>
<polygon fill="#FFFFFF" points="1266,1335 1113,1070 1419,1070 "/>
<polygon fill="#FFFFFF" points="1419,1070 1113,1070 1266,805 "/>
<polygon fill="#FFFFFF" points="1725,1070 1419,1070 1572,805 "/>
<polygon fill="#FFFFFF" points="1419,1070 1266,805 1572,805 "/>
<polygon fill="#FFFFFF" points="1342.5,1467.5 1036.5,1467.5 1189.5,1202.5 "/>
<polygon fill="#FFFFFF" points="1342.5,1467.5 1189.5,1202.5 1495.5,1202.5 "/>
<polygon fill="#FFFFFF" points="1036.5,1467.5 883.5,1202.5 1189.5,1202.5 "/>
<polygon fill="#FFFFFF" points="1189.5,1202.5 883.5,1202.5 1036.5,937.5 "/>
<polygon fill="#FFFFFF" points="1495.5,1202.5 1189.5,1202.5 1342.5,937.5 "/>
<polygon fill="#FFFFFF" points="1189.5,1202.5 1036.5,937.5 1342.5,937.5 "/>
<polygon fill="#FFFFFF" points="1036.5,1467.5 883.5,1467.5 960,1335 "/>
<polygon fill="#FFFFFF" points="1036.5,1467.5 960,1335 1113,1335 "/>
<polygon fill="#FFFFFF" points="883.5,1467.5 807,1335 960,1335 "/>
<polygon fill="#FFFFFF" points="960,1335 807,1335 883.5,1202.5 "/>
<polygon fill="#FFFFFF" points="1113,1335 960,1335 1036.5,1202.5 "/>
<polygon fill="#FFFFFF" points="960,1335 883.5,1202.5 1036.5,1202.5 "/>
<polygon fill="#FFFFFF" points="807,1335 654,1335 730.5,1202.5 "/>
<polygon fill="#FFFFFF" points="807,1335 730.5,1202.5 883.5,1202.5 "/>
<polygon fill="#FFFFFF" points="654,1335 577.5,1202.5 730.5,1202.5 "/>
<polygon fill="#FFFFFF" points="730.5,1202.5 577.5,1202.5 654,1070 "/>
<polygon fill="#FFFFFF" points="883.5,1202.5 730.5,1202.5 807,1070 "/>
<polygon fill="#FFFFFF" points="730.5,1202.5 654,1070 807,1070 "/>
<polygon fill="#FFFFFF" points="654,1335 348,1335 501,1070 "/>
<polygon fill="#FFFFFF" points="654,1335 501,1070 807,1070 "/>
<polygon fill="#FFFFFF" points="348,1335 195,1070 501,1070 "/>
<polygon fill="#FFFFFF" points="501,1070 195,1070 348,805 "/>
<polygon fill="#FFFFFF" points="807,1070 501,1070 654,805 "/>
<polygon fill="#FFFFFF" points="501,1070 348,805 654,805 "/>
<polygon fill="#FFFFFF" points="424.5,1202.5 118.5,1202.5 271.5,937.5 "/>
<polygon fill="#FFFFFF" points="424.5,1202.5 271.5,937.5 577.5,937.5 "/>
<polygon fill="#FFFFFF" points="118.5,1202.5 -34.5,937.5 271.5,937.5 "/>
<polygon fill="#FFFFFF" points="271.5,937.5 -34.5,937.5 118.5,672.5 "/>
<polygon fill="#FFFFFF" points="577.5,937.5 271.5,937.5 424.5,672.5 "/>
<polygon fill="#FFFFFF" points="271.5,937.5 118.5,672.5 424.5,672.5 "/>
<polygon fill="#FFFFFF" points="348,805 195,805 271.5,672.5 "/>
<polygon fill="#FFFFFF" points="348,805 271.5,672.5 424.5,672.5 "/>
<polygon fill="#FFFFFF" points="195,805 118.5,672.5 271.5,672.5 "/>
<polygon fill="#FFFFFF" points="271.5,672.5 118.5,672.5 195,540 "/>
<polygon fill="#FFFFFF" points="424.5,672.5 271.5,672.5 348,540 "/>
<polygon fill="#FFFFFF" points="271.5,672.5 195,540 348,540 "/>
<polygon fill="#FFFFFF" points="501,805 42,805 271.5,407.5 "/>
<polygon fill="#FFFFFF" points="501,805 271.5,407.5 730.5,407.5 "/>
<polygon fill="#FFFFFF" points="42,805 -187.5,407.5 271.5,407.5 "/>
<polygon fill="#FFFFFF" points="271.5,407.5 -187.5,407.5 42,10 "/>
<polygon fill="#FFFFFF" points="730.5,407.5 271.5,407.5 501,10 "/>
<polygon fill="#FFFFFF" points="271.5,407.5 42,10 501,10 "/>
<polygon fill="#FFFFFF" points="348,275 195,275 271.5,142.5 "/>
<polygon fill="#FFFFFF" points="348,275 271.5,142.5 424.5,142.5 "/>
<polygon fill="#FFFFFF" points="195,275 118.5,142.5 271.5,142.5 "/>
<polygon fill="#FFFFFF" points="271.5,142.5 118.5,142.5 195,10 "/>
<polygon fill="#FFFFFF" points="424.5,142.5 271.5,142.5 348,10 "/>
<polygon fill="#FFFFFF" points="271.5,142.5 195,10 348,10 "/>
<polygon fill="#FFFFFF" points="577.5,142.5 424.5,142.5 501,10 "/>
<polygon fill="#FFFFFF" points="577.5,142.5 501,10 654,10 "/>
<polygon fill="#FFFFFF" points="424.5,142.5 348,10 501,10 "/>
<polygon fill="#FFFFFF" points="501,10 348,10 424.5,-122.5 "/>
<polygon fill="#FFFFFF" points="654,10 501,10 577.5,-122.5 "/>
<polygon fill="#FFFFFF" points="501,10 424.5,-122.5 577.5,-122.5 "/>
<polygon fill="#FFFFFF" points="883.5,142.5 577.5,142.5 730.5,-122.5 "/>
<polygon fill="#FFFFFF" points="883.5,142.5 730.5,-122.5 1036.5,-122.5 "/>
<polygon fill="#FFFFFF" points="577.5,142.5 424.5,-122.5 730.5,-122.5 "/>
<polygon fill="#FFFFFF" points="730.5,-122.5 424.5,-122.5 577.5,-387.5 "/>
<polygon fill="#FFFFFF" points="1036.5,-122.5 730.5,-122.5 883.5,-387.5 "/>
<polygon fill="#FFFFFF" points="730.5,-122.5 577.5,-387.5 883.5,-387.5 "/>
<polygon fill="#FFFFFF" points="1036.5,-122.5 883.5,-122.5 960,-255 "/>
<polygon fill="#FFFFFF" points="1036.5,-122.5 960,-255 1113,-255 "/>
<polygon fill="#FFFFFF" points="883.5,-122.5 807,-255 960,-255 "/>
<polygon fill="#FFFFFF" points="960,-255 807,-255 883.5,-387.5 "/>
<polygon fill="#FFFFFF" points="1113,-255 960,-255 1036.5,-387.5 "/>
<polygon fill="#FFFFFF" points="960,-255 883.5,-387.5 1036.5,-387.5 "/>
<polygon fill="#FFFFFF" points="1266,-255 1113,-255 1189.5,-387.5 "/>
<polygon fill="#FFFFFF" points="1266,-255 1189.5,-387.5 1342.5,-387.5 "/>
<polygon fill="#FFFFFF" points="1113,-255 1036.5,-387.5 1189.5,-387.5 "/>
<polygon fill="#FFFFFF" points="1189.5,-387.5 1036.5,-387.5 1113,-520 "/>
<polygon fill="#FFFFFF" points="1342.5,-387.5 1189.5,-387.5 1266,-520 "/>
<polygon fill="#FFFFFF" points="1189.5,-387.5 1113,-520 1266,-520 "/>
<polygon fill="#FFFFFF" points="1495.5,-122.5 1342.5,-122.5 1419,-255 "/>
<polygon fill="#FFFFFF" points="1495.5,-122.5 1419,-255 1572,-255 "/>
<polygon fill="#FFFFFF" points="1342.5,-122.5 1266,-255 1419,-255 "/>
<polygon fill="#FFFFFF" points="1419,-255 1266,-255 1342.5,-387.5 "/>
<polygon fill="#FFFFFF" points="1572,-255 1419,-255 1495.5,-387.5 "/>
<polygon fill="#FFFFFF" points="1419,-255 1342.5,-387.5 1495.5,-387.5 "/>
<polygon fill="#FFFFFF" points="1725,10 1572,10 1648.5,-122.5 "/>
<polygon fill="#FFFFFF" points="1725,10 1648.5,-122.5 1801.5,-122.5 "/>
<polygon fill="#FFFFFF" points="1572,10 1495.5,-122.5 1648.5,-122.5 "/>
<polygon fill="#FFFFFF" points="1648.5,-122.5 1495.5,-122.5 1572,-255 "/>
<polygon fill="#FFFFFF" points="1801.5,-122.5 1648.5,-122.5 1725,-255 "/>
<polygon fill="#FFFFFF" points="1648.5,-122.5 1572,-255 1725,-255 "/>
<polygon fill="#FFFFFF" points="1954.5,142.5 1801.5,142.5 1878,10 "/>
<polygon fill="#FFFFFF" points="1954.5,142.5 1878,10 2031,10 "/>
<polygon fill="#FFFFFF" points="1801.5,142.5 1725,10 1878,10 "/>
<polygon fill="#FFFFFF" points="1878,10 1725,10 1801.5,-122.5 "/>
<polygon fill="#FFFFFF" points="2031,10 1878,10 1954.5,-122.5 "/>
<polygon fill="#FFFFFF" points="1878,10 1801.5,-122.5 1954.5,-122.5 "/>
<polygon fill="#FFFFFF" points="2031,540 1725,540 1878,275 "/>
<polygon fill="#FFFFFF" points="2031,540 1878,275 2184,275 "/>
<polygon fill="#FFFFFF" points="1725,540 1572,275 1878,275 "/>
<polygon fill="#FFFFFF" points="1878,275 1572,275 1725,10 "/>
<polygon fill="#FFFFFF" points="2184,275 1878,275 2031,10 "/>
<polygon fill="#FFFFFF" points="1878,275 1725,10 2031,10 "/>
<polygon fill="#FFFFFF" points="1954.5,672.5 1801.5,672.5 1878,540 "/>
<polygon fill="#FFFFFF" points="1954.5,672.5 1878,540 2031,540 "/>
<polygon fill="#FFFFFF" points="1801.5,672.5 1725,540 1878,540 "/>
<polygon fill="#FFFFFF" points="1878,540 1725,540 1801.5,407.5 "/>
<polygon fill="#FFFFFF" points="2031,540 1878,540 1954.5,407.5 "/>
<polygon fill="#FFFFFF" points="1878,540 1801.5,407.5 1954.5,407.5 "/>
<polygon fill="#FFFFFF" points="1954.5,937.5 1801.5,937.5 1878,805 "/>
<polygon fill="#FFFFFF" points="1954.5,937.5 1878,805 2031,805 "/>
<polygon fill="#FFFFFF" points="1801.5,937.5 1725,805 1878,805 "/>
<polygon fill="#FFFFFF" points="1878,805 1725,805 1801.5,672.5 "/>
<polygon fill="#FFFFFF" points="2031,805 1878,805 1954.5,672.5 "/>
<polygon fill="#FFFFFF" points="1878,805 1801.5,672.5 1954.5,672.5 "/>
<polygon fill="#FFFFFF" points="1954.5,1202.5 1801.5,1202.5 1878,1070 "/>
<polygon fill="#FFFFFF" points="1954.5,1202.5 1878,1070 2031,1070 "/>
<polygon fill="#FFFFFF" points="1801.5,1202.5 1725,1070 1878,1070 "/>
<polygon fill="#FFFFFF" points="1878,1070 1725,1070 1801.5,937.5 "/>
<polygon fill="#FFFFFF" points="2031,1070 1878,1070 1954.5,937.5 "/>
<polygon fill="#FFFFFF" points="1878,1070 1801.5,937.5 1954.5,937.5 "/>
<polygon fill="#FFFFFF" points="1725,1335 1572,1335 1648.5,1202.5 "/>
<polygon fill="#FFFFFF" points="1725,1335 1648.5,1202.5 1801.5,1202.5 "/>
<polygon fill="#FFFFFF" points="1572,1335 1495.5,1202.5 1648.5,1202.5 "/>
<polygon fill="#FFFFFF" points="1648.5,1202.5 1495.5,1202.5 1572,1070 "/>
<polygon fill="#FFFFFF" points="1801.5,1202.5 1648.5,1202.5 1725,1070 "/>
<polygon fill="#FFFFFF" points="1648.5,1202.5 1572,1070 1725,1070 "/>
<polygon fill="#FFFFFF" points="1495.5,1467.5 1342.5,1467.5 1419,1335 "/>
<polygon fill="#FFFFFF" points="1495.5,1467.5 1419,1335 1572,1335 "/>
<polygon fill="#FFFFFF" points="1342.5,1467.5 1266,1335 1419,1335 "/>
<polygon fill="#FFFFFF" points="1419,1335 1266,1335 1342.5,1202.5 "/>
<polygon fill="#FFFFFF" points="1572,1335 1419,1335 1495.5,1202.5 "/>
<polygon fill="#FFFFFF" points="1419,1335 1342.5,1202.5 1495.5,1202.5 "/>
<polygon fill="#FFFFFF" points="1266,1600 1113,1600 1189.5,1467.5 "/>
<polygon fill="#FFFFFF" points="1266,1600 1189.5,1467.5 1342.5,1467.5 "/>
<polygon fill="#FFFFFF" points="1113,1600 1036.5,1467.5 1189.5,1467.5 "/>
<polygon fill="#FFFFFF" points="1189.5,1467.5 1036.5,1467.5 1113,1335 "/>
<polygon fill="#FFFFFF" points="1342.5,1467.5 1189.5,1467.5 1266,1335 "/>
<polygon fill="#FFFFFF" points="1189.5,1467.5 1113,1335 1266,1335 "/>
<polygon fill="#FFFFFF" points="1036.5,1732.5 883.5,1732.5 960,1600 "/>
<polygon fill="#FFFFFF" points="1036.5,1732.5 960,1600 1113,1600 "/>
<polygon fill="#FFFFFF" points="883.5,1732.5 807,1600 960,1600 "/>
<polygon fill="#FFFFFF" points="960,1600 807,1600 883.5,1467.5 "/>
<polygon fill="#FFFFFF" points="1113,1600 960,1600 1036.5,1467.5 "/>
<polygon fill="#FFFFFF" points="960,1600 883.5,1467.5 1036.5,1467.5 "/>
<polygon fill="#FFFFFF" points="807,1600 654,1600 730.5,1467.5 "/>
<polygon fill="#FFFFFF" points="807,1600 730.5,1467.5 883.5,1467.5 "/>
<polygon fill="#FFFFFF" points="654,1600 577.5,1467.5 730.5,1467.5 "/>
<polygon fill="#FFFFFF" points="730.5,1467.5 577.5,1467.5 654,1335 "/>
<polygon fill="#FFFFFF" points="883.5,1467.5 730.5,1467.5 807,1335 "/>
<polygon fill="#FFFFFF" points="730.5,1467.5 654,1335 807,1335 "/>
<polygon fill="#FFFFFF" points="730.5,1732.5 271.5,1732.5 501,1335 "/>
<polygon fill="#FFFFFF" points="730.5,1732.5 501,1335 960,1335 "/>
<polygon fill="#FFFFFF" points="271.5,1732.5 42,1335 501,1335 "/>
<polygon fill="#FFFFFF" points="501,1335 42,1335 271.5,937.5 "/>
<polygon fill="#FFFFFF" points="960,1335 501,1335 730.5,937.5 "/>
<polygon fill="#FFFFFF" points="501,1335 271.5,937.5 730.5,937.5 "/>
<polygon fill="#FFFFFF" points="348,1335 195,1335 271.5,1202.5 "/>
<polygon fill="#FFFFFF" points="348,1335 271.5,1202.5 424.5,1202.5 "/>
<polygon fill="#FFFFFF" points="195,1335 118.5,1202.5 271.5,1202.5 "/>
<polygon fill="#FFFFFF" points="271.5,1202.5 118.5,1202.5 195,1070 "/>
<polygon fill="#FFFFFF" points="424.5,1202.5 271.5,1202.5 348,1070 "/>
<polygon fill="#FFFFFF" points="271.5,1202.5 195,1070 348,1070 "/>
<polygon fill="#FFFFFF" points="195,1335 -111,1335 42,1070 "/>
<polygon fill="#FFFFFF" points="195,1335 42,1070 348,1070 "/>
<polygon fill="#FFFFFF" points="-111,1335 -264,1070 42,1070 "/>
<polygon fill="#FFFFFF" points="42,1070 -264,1070 -111,805 "/>
<polygon fill="#FFFFFF" points="348,1070 42,1070 195,805 "/>
<polygon fill="#FFFFFF" points="42,1070 -111,805 195,805 "/>
<polygon fill="#FFFFFF" points="118.5,937.5 -34.5,937.5 42,805 "/>
<polygon fill="#FFFFFF" points="118.5,937.5 42,805 195,805 "/>
<polygon fill="#FFFFFF" points="-34.5,937.5 -111,805 42,805 "/>
<polygon fill="#FFFFFF" points="42,805 -111,805 -34.5,672.5 "/>
<polygon fill="#FFFFFF" points="195,805 42,805 118.5,672.5 "/>
<polygon fill="#FFFFFF" points="42,805 -34.5,672.5 118.5,672.5 "/>
<polygon fill="#FFFFFF" points="118.5,672.5 -34.5,672.5 42,540 "/>
<polygon fill="#FFFFFF" points="118.5,672.5 42,540 195,540 "/>
<polygon fill="#FFFFFF" points="-34.5,672.5 -111,540 42,540 "/>
<polygon fill="#FFFFFF" points="42,540 -111,540 -34.5,407.5 "/>
<polygon fill="#FFFFFF" points="195,540 42,540 118.5,407.5 "/>
<polygon fill="#FFFFFF" points="42,540 -34.5,407.5 118.5,407.5 "/>
<polygon fill="#FFFFFF" points="118.5,407.5 -34.5,407.5 42,275 "/>
<polygon fill="#FFFFFF" points="118.5,407.5 42,275 195,275 "/>
<polygon fill="#FFFFFF" points="-34.5,407.5 -111,275 42,275 "/>
<polygon fill="#FFFFFF" points="42,275 -111,275 -34.5,142.5 "/>
<polygon fill="#FFFFFF" points="195,275 42,275 118.5,142.5 "/>
<polygon fill="#FFFFFF" points="42,275 -34.5,142.5 118.5,142.5 "/>
<polygon fill="#FFFFFF" points="195,275 -111,275 42,10 "/>
<polygon fill="#FFFFFF" points="195,275 42,10 348,10 "/>
<polygon fill="#FFFFFF" points="-111,275 -264,10 42,10 "/>
<polygon fill="#FFFFFF" points="42,10 -264,10 -111,-255 "/>
<polygon fill="#FFFFFF" points="348,10 42,10 195,-255 "/>
<polygon fill="#FFFFFF" points="42,10 -111,-255 195,-255 "/>
<polygon fill="#FFFFFF" points="348,10 195,10 271.5,-122.5 "/>
<polygon fill="#FFFFFF" points="348,10 271.5,-122.5 424.5,-122.5 "/>
<polygon fill="#FFFFFF" points="195,10 118.5,-122.5 271.5,-122.5 "/>
<polygon fill="#FFFFFF" points="271.5,-122.5 118.5,-122.5 195,-255 "/>
<polygon fill="#FFFFFF" points="424.5,-122.5 271.5,-122.5 348,-255 "/>
<polygon fill="#FFFFFF" points="271.5,-122.5 195,-255 348,-255 "/>
<polygon fill="#FFFFFF" points="577.5,-122.5 424.5,-122.5 501,-255 "/>
<polygon fill="#FFFFFF" points="577.5,-122.5 501,-255 654,-255 "/>
<polygon fill="#FFFFFF" points="424.5,-122.5 348,-255 501,-255 "/>
<polygon fill="#FFFFFF" points="501,-255 348,-255 424.5,-387.5 "/>
<polygon fill="#FFFFFF" points="654,-255 501,-255 577.5,-387.5 "/>
<polygon fill="#FFFFFF" points="501,-255 424.5,-387.5 577.5,-387.5 "/>
<polygon fill="#FFFFFF" points="807,-255 654,-255 730.5,-387.5 "/>
<polygon fill="#FFFFFF" points="807,-255 730.5,-387.5 883.5,-387.5 "/>
<polygon fill="#FFFFFF" points="654,-255 577.5,-387.5 730.5,-387.5 "/>
<polygon fill="#FFFFFF" points="730.5,-387.5 577.5,-387.5 654,-520 "/>
<polygon fill="#FFFFFF" points="883.5,-387.5 730.5,-387.5 807,-520 "/>
<polygon fill="#FFFFFF" points="730.5,-387.5 654,-520 807,-520 "/>
<polygon fill="#FFFFFF" points="1036.5,-387.5 883.5,-387.5 960,-520 "/>
<polygon fill="#FFFFFF" points="1036.5,-387.5 960,-520 1113,-520 "/>
<polygon fill="#FFFFFF" points="883.5,-387.5 807,-520 960,-520 "/>
<polygon fill="#FFFFFF" points="960,-520 807,-520 883.5,-652.5 "/>
<polygon fill="#FFFFFF" points="1113,-520 960,-520 1036.5,-652.5 "/>
<polygon fill="#FFFFFF" points="960,-520 883.5,-652.5 1036.5,-652.5 "/>
</svg>
