<?xml version="1.0" encoding="utf-8"?>
<!-- Generator: Adobe Illustrator 22.1.0, SVG Export Plug-In . SVG Version: 6.00 Build 0)  -->
<svg version="1.1" id="Layer_1" xmlns="http://www.w3.org/2000/svg" xmlns:xlink="http://www.w3.org/1999/xlink" x="0px" y="0px"
	 width="1920px" height="1080px" viewBox="0 0 1920 1080" enable-background="new 0 0 1920 1080" xml:space="preserve">
<polygon fill="#8EC641" points="1920,120 1800,240 1680,120 "/>
<polygon fill="#8EC641" points="1920,360 1800,480 1680,360 "/>
<polygon fill="#8EC641" points="1920,600 1800,720 1680,600 "/>
<polygon fill="#8EC641" points="1920,840 1800,960 1680,840 "/>
<polygon fill="#8EC641" points="1680,0 1560,120 1440,0 "/>
<polygon fill="#8EC641" points="1680,240 1560,360 1440,240 "/>
<polygon fill="#8EC641" points="1680,480 1560,600 1440,480 "/>
<polygon fill="#8EC641" points="1680,720 1560,840 1440,720 "/>
<polygon fill="#8EC641" points="1680,960 1560,1080 1440,960 "/>
<polygon fill="#8EC641" points="1440,120 1320,240 1200,120 "/>
<polygon fill="#8EC641" points="1440,360 1320,480 1200,360 "/>
<polygon fill="#8EC641" points="1440,600 1320,720 1200,600 "/>
<polygon fill="#8EC641" points="1440,840 1320,960 1200,840 "/>
<polygon fill="#8EC641" points="1200,0 1080,120 960,0 "/>
<polygon fill="#8EC641" points="1200,240 1080,360 960,240 "/>
<polygon fill="#8EC641" points="1200,480 1080,600 960,480 "/>
<polygon fill="#8EC641" points="1200,720 1080,840 960,720 "/>
<polygon fill="#8EC641" points="1200,960 1080,1080 960,960 "/>
<polygon fill="#8EC641" points="960,120 840,240 720,120 "/>
<polygon fill="#8EC641" points="960,360 840,480 720,360 "/>
<polygon fill="#8EC641" points="960,600 840,720 720,600 "/>
<polygon fill="#8EC641" points="960,840 840,960 720,840 "/>
<polygon fill="#8EC641" points="720,0 600,120 480,0 "/>
<polygon fill="#8EC641" points="720,240 600,360 480,240 "/>
<polygon fill="#8EC641" points="720,480 600,600 480,480 "/>
<polygon fill="#8EC641" points="720,720 600,840 480,720 "/>
<polygon fill="#8EC641" points="720,960 600,1080 480,960 "/>
<polygon fill="#8EC641" points="480,120 360,240 240,120 "/>
<polygon fill="#8EC641" points="480,360 360,480 240,360 "/>
<polygon fill="#8EC641" points="480,600 360,720 240,600 "/>
<polygon fill="#8EC641" points="480,840 360,960 240,840 "/>
<polygon fill="#8EC641" points="240,0 120,120 0,0 "/>
<polygon fill="#8EC641" points="240,240 120,360 0,240 "/>
<polygon fill="#8EC641" points="240,480 120,600 0,480 "/>
<polygon fill="#8EC641" points="240,720 120,840 0,720 "/>
<polygon fill="#8EC641" points="240,960 120,1080 0,960 "/>
<polygon fill="#3DB54A" points="1920,0 1800,120 1680,0 "/>
<polygon fill="#3DB54A" points="1920,240 1800,360 1680,240 "/>
<polygon fill="#3DB54A" points="1920,480 1800,600 1680,480 "/>
<polygon fill="#3DB54A" points="1920,720 1800,840 1680,720 "/>
<polygon fill="#3DB54A" points="1920,960 1800,1080 1680,960 "/>
<polygon fill="#3DB54A" points="1680,120 1560,240 1440,120 "/>
<polygon fill="#3DB54A" points="1680,360 1560,480 1440,360 "/>
<polygon fill="#3DB54A" points="1680,600 1560,720 1440,600 "/>
<polygon fill="#3DB54A" points="1680,840 1560,960 1440,840 "/>
<polygon fill="#3DB54A" points="1440,0 1320,120 1200,0 "/>
<polygon fill="#3DB54A" points="1440,240 1320,360 1200,240 "/>
<polygon fill="#3DB54A" points="1440,480 1320,600 1200,480 "/>
<polygon fill="#3DB54A" points="1440,720 1320,840 1200,720 "/>
<polygon fill="#3DB54A" points="1440,960 1320,1080 1200,960 "/>
<polygon fill="#3DB54A" points="1200,120 1080,240 960,120 "/>
<polygon fill="#3DB54A" points="1200,360 1080,480 960,360 "/>
<polygon fill="#3DB54A" points="1200,600 1080,720 960,600 "/>
<polygon fill="#3DB54A" points="1200,840 1080,960 960,840 "/>
<polygon fill="#3DB54A" points="960,0 840,120 720,0 "/>
<polygon fill="#3DB54A" points="960,240 840,360 720,240 "/>
<polygon fill="#3DB54A" points="960,480 840,600 720,480 "/>
<polygon fill="#3DB54A" points="960,720 840,840 720,720 "/>
<polygon fill="#3DB54A" points="960,960 840,1080 720,960 "/>
<polygon fill="#3DB54A" points="720,120 600,240 480,120 "/>
<polygon fill="#3DB54A" points="720,360 600,480 480,360 "/>
<polygon fill="#3DB54A" points="720,600 600,720 480,600 "/>
<polygon fill="#3DB54A" points="720,840 600,960 480,840 "/>
<polygon fill="#3DB54A" points="480,0 360,120 240,0 "/>
<polygon fill="#3DB54A" points="480,240 360,360 240,240 "/>
<polygon fill="#3DB54A" points="480,480 360,600 240,480 "/>
<polygon fill="#3DB54A" points="480,720 360,840 240,720 "/>
<polygon fill="#3DB54A" points="480,960 360,1080 240,960 "/>
<polygon fill="#3DB54A" points="240,120 120,240 0,120 "/>
<polygon fill="#3DB54A" points="240,360 120,480 0,360 "/>
<polygon fill="#3DB54A" points="240,600 120,720 0,600 "/>
<polygon fill="#3DB54A" points="240,840 120,960 0,840 "/>
<polygon fill="#F8ED34" points="1920,960 1920,1080 1800,1080 "/>
<polygon fill="#F8ED34" points="1920,720 1920,840 1800,840 "/>
<polygon fill="#F8ED34" points="1920,480 1920,600 1800,600 "/>
<polygon fill="#F8ED34" points="1920,240 1920,360 1800,360 "/>
<polygon fill="#F8ED34" points="1920,0 1920,120 1800,120 "/>
<polygon fill="#F8ED34" points="1800,240 1560,240 1680,120 "/>
<polygon fill="#F8ED34" points="1800,480 1560,480 1680,360 "/>
<polygon fill="#F8ED34" points="1800,720 1560,720 1680,600 "/>
<polygon fill="#F8ED34" points="1800,960 1560,960 1680,840 "/>
<polygon fill="#F8ED34" points="1560,120 1320,120 1440,0 "/>
<polygon fill="#F8ED34" points="1560,360 1320,360 1440,240 "/>
<polygon fill="#F8ED34" points="1560,600 1320,600 1440,480 "/>
<polygon fill="#F8ED34" points="1560,840 1320,840 1440,720 "/>
<polygon fill="#F8ED34" points="1560,1080 1320,1080 1440,960 "/>
<polygon fill="#F8ED34" points="1320,240 1080,240 1200,120 "/>
<polygon fill="#F8ED34" points="1320,480 1080,480 1200,360 "/>
<polygon fill="#F8ED34" points="1320,720 1080,720 1200,600 "/>
<polygon fill="#F8ED34" points="1320,960 1080,960 1200,840 "/>
<polygon fill="#F8ED34" points="1080,120 840,120 960,0 "/>
<polygon fill="#F8ED34" points="1080,360 840,360 960,240 "/>
<polygon fill="#F8ED34" points="1080,600 840,600 960,480 "/>
<polygon fill="#F8ED34" points="1080,840 840,840 960,720 "/>
<polygon fill="#F8ED34" points="1080,1080 840,1080 960,960 "/>
<polygon fill="#F8ED34" points="840,240 600,240 720,120 "/>
<polygon fill="#F8ED34" points="840,480 600,480 720,360 "/>
<polygon fill="#F8ED34" points="840,720 600,720 720,600 "/>
<polygon fill="#F8ED34" points="840,960 600,960 720,840 "/>
<polygon fill="#F8ED34" points="600,120 360,120 480,0 "/>
<polygon fill="#F8ED34" points="600,360 360,360 480,240 "/>
<polygon fill="#F8ED34" points="600,600 360,600 480,480 "/>
<polygon fill="#F8ED34" points="600,840 360,840 480,720 "/>
<polygon fill="#F8ED34" points="600,1080 360,1080 480,960 "/>
<polygon fill="#F8ED34" points="360,240 120,240 240,120 "/>
<polygon fill="#F8ED34" points="360,480 120,480 240,360 "/>
<polygon fill="#F8ED34" points="360,720 120,720 240,600 "/>
<polygon fill="#F8ED34" points="360,960 120,960 240,840 "/>
<polygon fill="#F8ED34" points="120,120 0,120 0,0 "/>
<polygon fill="#F8ED34" points="120,360 0,360 0,240 "/>
<polygon fill="#F8ED34" points="120,600 0,600 0,480 "/>
<polygon fill="#F8ED34" points="120,840 0,840 0,720 "/>
<polygon fill="#F8ED34" points="120,1080 0,1080 0,960 "/>
<polygon fill="#FBB041" points="1800,120 1560,120 1680,0 "/>
<polygon fill="#FBB041" points="1920,120 1920,240 1800,240 "/>
<polygon fill="#FBB041" points="1920,360 1920,480 1800,480 "/>
<polygon fill="#FBB041" points="1800,360 1560,360 1680,240 "/>
<polygon fill="#FBB041" points="1800,600 1560,600 1680,480 "/>
<polygon fill="#FBB041" points="1920,600 1920,720 1800,720 "/>
<polygon fill="#FBB041" points="1800,840 1560,840 1680,720 "/>
<polygon fill="#FBB041" points="1920,840 1920,960 1800,960 "/>
<polygon fill="#FBB041" points="1800,1080 1560,1080 1680,960 "/>
<polygon fill="#FBB041" points="1560,960 1320,960 1440,840 "/>
<polygon fill="#FBB041" points="1560,720 1320,720 1440,600 "/>
<polygon fill="#FBB041" points="1560,480 1320,480 1440,360 "/>
<polygon fill="#FBB041" points="1560,240 1320,240 1440,120 "/>
<polygon fill="#FBB041" points="1320,120 1080,120 1200,0 "/>
<polygon fill="#FBB041" points="1320,360 1080,360 1200,240 "/>
<polygon fill="#FBB041" points="1320,600 1080,600 1200,480 "/>
<polygon fill="#FBB041" points="1320,840 1080,840 1200,720 "/>
<polygon fill="#FBB041" points="1320,1080 1080,1080 1200,960 "/>
<polygon fill="#FBB041" points="1080,960 840,960 960,840 "/>
<polygon fill="#FBB041" points="1080,720 840,720 960,600 "/>
<polygon fill="#FBB041" points="1080,480 840,480 960,360 "/>
<polygon fill="#FBB041" points="1080,240 840,240 960,120 "/>
<polygon fill="#FBB041" points="840,120 600,120 720,0 "/>
<polygon fill="#FBB041" points="840,360 600,360 720,240 "/>
<polygon fill="#FBB041" points="840,600 600,600 720,480 "/>
<polygon fill="#FBB041" points="840,840 600,840 720,720 "/>
<polygon fill="#FBB041" points="840,1080 600,1080 720,960 "/>
<polygon fill="#FBB041" points="600,960 360,960 480,840 "/>
<polygon fill="#FBB041" points="600,720 360,720 480,600 "/>
<polygon fill="#FBB041" points="600,480 360,480 480,360 "/>
<polygon fill="#FBB041" points="600,240 360,240 480,120 "/>
<polygon fill="#FBB041" points="360,360 120,360 240,240 "/>
<polygon fill="#FBB041" points="360,600 120,600 240,480 "/>
<polygon fill="#FBB041" points="360,840 120,840 240,720 "/>
<polygon fill="#FBB041" points="360,1080 120,1080 240,960 "/>
<polygon fill="#FBB041" points="120,960 0,960 0,840 "/>
<polygon fill="#FBB041" points="120,720 0,720 0,600 "/>
<polygon fill="#FBB041" points="120,480 0,480 0,360 "/>
<polygon fill="#FBB041" points="120,240 0,240 0,120 "/>
<polygon fill="#FBB041" points="360,120 120,120 240,0 "/>
</svg>
